<svg width="256" height="36" xmlns="http://www.w3.org/2000/svg"><path d="M13.474 0l13.473 13.494-4.474 4.48 4.474 4.532L13.474 36 0 22.506l3.356-3.36 2.237 2.24-1.119 1.12 9 9.013 9-9.013-9-9.012-4.475 4.48 4.475 4.532 3.355-3.411 2.288 2.291-5.643 5.601L0 13.494 13.474 0zm154.43 13.31c6.318 0 7.087 1.885 7.11 6.606l.001.129v-6.509h2.77v11.703c0 5.262-1.662 6.441-9.37 6.441h-16.149v-2.722h12.471c8.971 0 10.278-.408 10.278-3.061v-5.263.22c-.024 4.697-.793 6.517-7.11 6.517h-7.42c-6.004 0-9.127-2.382-9.127-7.031 0-4.65 3.123-7.03 9.126-7.03h7.42zM66.763 9c9.946 0 13.623 3.311 13.623 9.05 0 5.919-3.721 9.094-13.623 9.094H48.931V9h17.831zm48.777 4.536l9.658 10.886h1.839l9.658-10.886h3.699l-12.227 13.608h-4.098L111.84 13.536h3.7zm30.724 0v13.608h-2.769V13.536h2.769zm72.944 10.546v3.062h-4.541v-3.062h4.54zm8.417-10.546v13.608h-2.769V13.536h2.77zM239.254 9v4.536H256v2.722h-16.746v4.74c0 2.835.664 3.424 3.433 3.424H256v2.722h-14.066c-3.588 0-5.45-1.701-5.45-5.375v-5.511h-4.65v-2.722h4.65V9h2.77zM100.92 13.31c5.537 0 9.148 1.927 9.148 6.985v1.202H87.385c.51 2.04 2.68 2.925 6.38 2.925h15.97v2.722H93.522c-5.294 0-9.148-1.792-9.148-6.917 0-5.013 3.61-6.918 9.148-6.918h7.399zm99.193 0c5.715 0 9.126 2.04 9.126 7.007v6.827h-2.769v-6.827c0-3.039-2.127-4.286-6.535-4.286h-6.512c-5.095 0-6.89 1.52-6.89 4.49v6.623h-2.768V13.536h2.769l-.001 6.649.001-.14c.024-4.85.794-6.736 7.11-6.736h6.469zm-31.987 2.72h-7.354c-4.519 0-6.535 1.384-6.535 4.355 0 2.971 2.016 4.264 6.535 4.264h7.354c5.095 0 6.89-1.451 6.89-4.264 0-2.835-1.906-4.354-6.89-4.354zm-101.85-4.308H51.7V24.4h14.575c7.487 0 11.209-1.633 11.209-6.35 0-4.56-3.722-6.328-11.209-6.328zm34.378 4.309h-6.89c-3.743 0-5.581.884-6.29 2.744H106.9c-.62-1.86-2.458-2.744-6.246-2.744zM13.474 4.48l-9 9.013 2.237 2.24 6.763-6.721 6.762 6.721 2.237-2.24-9-9.013zM146.64 9v2.835h-3.522V9h3.522zM228 9v2.835h-3.521V9H228z" fill="#000" fill-rule="nonzero"/></svg>