<svg width="792" height="176" xmlns="http://www.w3.org/2000/svg"><g fill="none" fill-rule="evenodd"><path d="M152.558 0L176 21.785v128.43L152.558 172H23.442L0 150.215V21.785L23.442 0h129.116zm-49.252 33.628H73.822l-5.001 5.14v27.936l-28.845.001-5.002 5.14v28.31l5.002 5.14H68.82v27.937l5.002 5.14h29.484l5.002-5.14v-27.938h28.844l5.002-5.139v-28.31l-5.002-5.14h-28.845V38.767l-5-5.14zm-.64 38.59V99.78H74.461V72.217h28.205z" fill="#FFF"/><path d="M236.53 12.124c-3.02-.476-4.53-1.506-4.53-3.09L234.385.95a3.177 3.177 0 011.073-.713c.397-.159.914-.238 1.55-.238l5.722.475c6.041.951 16.612 1.427 31.714 1.427l12.877-.238c16.85 0 30.442-.158 40.775-.475 10.333-.317 16.85-.634 19.553-.951L354.802 0c1.431 0 2.703.475 3.816 1.426 1.112.951 1.669 2.06 1.669 3.328v1.189c-.795 5.388-1.312 9.39-1.55 12.005-.239 2.615-.358 7.884-.358 15.808 0 2.377-.795 3.883-2.384 4.517l-5.246 1.426-3.815.713c-.954 0-1.67-.238-2.146-.713l-.954-1.189-1.431-6.18c-1.113-6.023-3.259-9.034-6.438-9.034l-17.407-.713-7.63-.237c-3.657 0-6.081.079-7.273.237-1.193.159-2.186.634-2.981 1.427l-1.192 3.565-.239 5.706a620.211 620.211 0 00-.834 11.172c-.239 3.645-.358 6.894-.358 9.747l-.238 22.583c0 2.219.635 3.764 1.907 4.636 1.272.871 3.736 1.307 7.392 1.307h4.53l24.561-1.426 7.63-.713 4.531-.476c1.113 0 2.146.792 3.1 2.377l1.43 1.902c.16.159.28.396.359.713.079.317.198.555.357.713l-.238.951c-1.113 3.011-1.67 6.022-1.67 9.034-.476 4.912-1.112 8.003-1.907 9.27-.795 1.268-2.385 1.902-4.769 1.902h-2.861c-2.385-.475-4.213-.792-5.485-.95a533.08 533.08 0 00-12.638-1.546c-3.656-.396-8.107-.594-13.353-.594l-7.154-.238c-3.497 0-5.246 1.189-5.246 3.566l-.476 30.428v.95c0 8.242.794 13.987 2.384 17.235 1.59 3.25 4.61 5.19 9.061 5.825l3.1.237c2.862 0 4.292 1.03 4.292 3.09l-2.384 7.845c-.16.634-1.034.951-2.623.951l-5.485-.475c-4.292-.476-14.545-.713-30.76-.713-16.85 0-27.422.237-31.714.713l-5.484.475c-.636 0-1.153-.119-1.55-.356-.398-.238-.676-.436-.835-.595l-2.384-7.369c0-2.377 1.35-3.566 4.053-3.566l3.1-.237c6.041-.951 9.538-5.547 10.492-13.788.318-2.694.556-5.468.715-8.32.16-2.853.239-6.815.239-11.886l.238-53.725V40.888c0-6.657-.397-11.57-1.192-14.739-.954-8.24-4.769-12.837-11.446-13.788l-3.1-.237zm130.131 66.82l-2.151.239c-.956-.478-1.514-.876-1.673-1.195l-1.435-5.016c0-2.07.877-3.264 2.63-3.583h4.303l24.621-4.538 21.992-6.45 1.195-.477 1.674.239 1.434.716 4.542 5.255v1.911a28.725 28.725 0 00-2.152 10.988l-.478 34.157-.239 12.182c0 8.44.08 15.049.24 19.826.159 4.777.557 9.236 1.195 13.376.637 4.14 3.027 6.529 7.17 7.166l2.63.478c1.913.796 2.869 1.751 2.869 2.866l-.24.955-1.433 5.017-1.435.716-4.78-.478c-4.144-.477-13.626-.716-28.447-.716-15.14 0-24.621.239-28.446.716l-4.78.478-1.435-.716-1.673-5.017-.24-.955c0-1.592.957-2.548 2.869-2.866l2.63-.478c3.506-.637 5.896-2.468 7.17-5.494 1.276-3.025 1.913-8.758 1.913-17.198l.24-23.647.238-12.421c0-11.784-.358-19.189-1.075-22.214-.718-3.026-2.51-4.539-5.379-4.539l-.717.24-3.347.477zm11.474-47.405c0-5.744 2.036-10.672 6.108-14.786 4.071-4.114 9.06-6.17 14.968-6.17 5.907 0 10.937 2.017 15.088 6.053 4.151 4.037 6.227 9.082 6.227 15.136 0 5.589-2.076 10.323-6.227 14.204-4.151 3.881-9.18 5.821-15.088 5.821-5.748 0-10.697-1.94-14.849-5.82-4.15-3.882-6.227-8.694-6.227-14.438zm134.648 31.089l-.234-15.379-.47-20.271c0-4.04-1.876-6.058-5.628-6.058l-3.987.233-2.11.233-1.408-.7-1.642-5.359c0-.932.235-1.708.704-2.33.469-.621 1.094-.932 1.876-.932l4.222-.233 24.156-3.96 21.577-6.525 1.172-.233 1.876.233 1.173.466 4.456 5.36V8.57l-.938 3.961-.938 7.223-.704 68.97v17.243c0 14.757.078 25.709.235 32.854.156 7.146.469 12.582.938 16.31.938 5.127 3.596 8 7.974 8.622l2.58.466c1.563.621 2.345 1.553 2.345 2.796v.932l-1.407 4.893c-.157.621-.704.932-1.642.932l-4.69-.466c-1.72-.31-4.574-.544-8.56-.699-3.988-.155-8.796-.233-14.424-.233-9.85 0-17.746.388-23.688 1.165h-1.172c-1.72 0-2.58-.699-2.58-2.097l.47-4.66.468-6.058c-5.785 5.126-10.67 8.543-14.658 10.252-3.987 1.709-8.873 2.563-14.658 2.563-12.195 0-22.202-4.66-30.02-13.98-7.817-9.32-11.726-21.282-11.726-35.883 0-17.864 5.863-32.854 17.59-44.97C471.037 66.588 485.5 60.53 502.698 60.53c2.346 0 4.026.077 5.043.233 1.016.155 2.697.776 5.042 1.864zm-9.233 86.638c5.633 0 8.45-3.526 8.45-10.579V91.543c0-9.046-3.502-13.568-10.505-13.568-5.634 0-10.125 2.99-13.475 8.969-3.35 5.979-5.024 14.028-5.024 24.147 0 10.732 1.98 19.777 5.938 27.136 3.958 7.36 8.83 11.039 14.616 11.039zm121.36-30.63c.472 5.258 1.102 9.281 1.89 12.07.786 2.788 2.203 5.696 4.25 8.724 5.351 8.923 13.694 13.385 25.028 13.385 11.176 0 18.81-2.868 22.903-8.605 1.574-2.23 2.912-3.346 4.014-3.346 2.204 0 3.306 1.036 3.306 3.107 0 1.434-.787 3.984-2.361 7.649l-1.417 6.453c-.63 4.622-5.549 8.765-14.757 12.43-9.209 3.665-19.165 5.497-29.87 5.497-9.916 0-18.023-1.354-24.32-4.063-9.759-4.303-17.787-11.553-24.083-21.751-6.297-10.198-9.445-21.193-9.445-32.985 0-17.21 5.745-31.391 17.236-42.546 11.492-11.154 26.13-16.73 43.918-16.73 15.584 0 27.508 4.023 35.772 12.07s12.397 19.56 12.397 34.538c0 2.071-.08 3.346-.237 3.824-.157.478-.787.956-1.889 1.434l-16.292 7.65c-1.259.636-3.227.955-5.903.955l-40.14.24zm15.403-44.003c-5.448 0-9.417 2.14-11.908 6.423-2.49 4.282-3.736 11.561-3.736 21.838l13.542.7 16.578-1.167c0-10.744-1.09-18.062-3.269-21.955-2.18-3.893-5.915-5.84-11.207-5.84zm66.815 87.56l.713-21.901c.158-2.222 3.09-3.333 8.796-3.333 4.28 0 6.42 1.349 6.42 4.047l1.188 9.522c1.11 5.872 5.943 8.808 14.502 8.808 4.12 0 7.37-1.11 9.747-3.333 2.377-2.222 3.566-5.396 3.566-9.522 0-3.968-1.189-7.062-3.566-9.284-2.377-2.222-6.577-4.285-12.6-6.19l-12.125-4.047c-12.52-5.554-18.781-15.553-18.781-29.995 0-10.95 4.319-20.195 12.957-27.733 8.638-7.539 19.217-11.308 31.738-11.308 7.132 0 15.611 1.27 25.438 3.809 4.754 1.27 7.805 2.261 9.153 2.976 1.347.714 2.02 1.706 2.02 2.975v1.19l-1.426 7.618-.951 14.046c0 3.333-2.615 4.999-7.845 4.999-4.121 0-6.182-1.19-6.182-3.57v-1.191c0-4.92-1.268-8.729-3.803-11.427-2.536-2.698-6.102-4.047-10.699-4.047-3.17 0-5.785.873-7.845 2.619-2.06 1.746-3.09 4.126-3.09 7.141 0 3.016.633 5.357 1.901 7.023 1.268 1.667 3.646 3.293 7.133 4.88l8.796 3.81 11.887 4.998c6.498 2.698 11.094 6.23 13.788 10.594 2.695 4.364 4.042 10.593 4.042 18.687 0 11.744-4.874 21.505-14.62 29.281-9.748 7.777-22.07 11.665-36.97 11.665-4.912 0-13.47-.714-25.675-2.143l-6.656-1.19c-1.744-.476-2.615-1.587-2.615-3.333l.237-1.19 1.427-5.951z" fill="#FFF" fill-rule="nonzero"/></g></svg>