<svg width="1433" height="102" xmlns="http://www.w3.org/2000/svg"><path d="M140.975 102C163.241 102 178 91.8 178 69.742c0-22.057-14.76-32.13-37.025-32.13H36.389c-5.09 0-7.125-2.422-7.125-5.482s2.035-5.355 7.125-5.355h136.649V0H37.025C14.759 0 0 10.455 0 32.258c0 22.057 14.76 32.13 37.025 32.13h104.586c5.09 0 7.125 2.294 7.125 5.354s-2.035 5.483-7.125 5.483H1.781V102h139.194zM373 102V75.225H226.533V64.387H373V37.613H226.533V26.775H373V0H198v102h175zm51.75 0V66.3h.383l90.85 35.7h63.761v-.637L484.55 66.3h58.267C566.71 66.3 580 54.57 580 33.15 580 11.73 566.711 0 542.817 0H396v102h28.75zm117.424-62H425V28h117.174c6.012 0 8.826 1.56 8.826 6 0 4.44-2.814 6-8.826 6zm169.432 62L802 0h-38.322l-67.604 75.225h-8.148L620.322 0H582l90.394 102h39.212zM843 102V0h-29v102h29zm205 0V75.225H929.625c-25.175 0-37.381-7.777-37.381-24.225s12.206-24.225 37.381-24.225h118.248V0H926.955C886.141 0 863 18.488 863 51s23.14 51 63.955 51H1048zm194 0V75.225h-146.467V64.387H1242V37.613h-146.467V26.775H1242V0h-175v102h175zm159.975 0c22.266 0 37.025-10.2 37.025-32.258 0-22.057-14.76-32.13-37.025-32.13h-104.586c-5.09 0-7.125-2.422-7.125-5.482s2.036-5.355 7.125-5.355h136.649V0h-136.013C1275.759 0 1261 10.455 1261 32.258c0 22.057 14.76 32.13 37.025 32.13h104.586c5.09 0 7.125 2.294 7.125 5.354s-2.036 5.483-7.125 5.483h-139.83V102h139.194z" fill="#FFF" fill-rule="nonzero" opacity=".048"/></svg>