<?xml version="1.0" encoding="UTF-8"?>
<svg width="392px" height="820px" viewBox="0 0 392 820" version="1.1" xmlns="http://www.w3.org/2000/svg" xmlns:xlink="http://www.w3.org/1999/xlink">
    <!-- Generator: Sketch 55.2 (78181) - https://sketchapp.com -->
    <title>Artboard Copy 2</title>
    <desc>Created with Sketch.</desc>
    <g id="Artboard-Copy-2" stroke="none" stroke-width="1" fill="none" fill-rule="evenodd">
        <g id="hero-copy">
            <rect id="Rectangle" x="0" y="0" width="392" height="820"></rect>
        </g>
        <path d="M31.19,595.075 L37.42,595.075 C36.195,597.245 36.195,598.785 36.195,600.08 L36.195,610.545 C36.195,614.885 37.42,616.95 41.27,616.95 C43.79,616.95 45.505,616.04 46.24,614.465 C46.73,613.415 46.8,612.19 46.8,610.755 L46.8,600.08 C46.8,598.68 46.765,597.14 45.54,595.075 L50.65,595.075 C49.32,597.28 49.32,598.82 49.32,600.115 L49.32,610.405 C49.32,612.225 49.285,613.8 48.55,615.2 C47.43,617.335 44.77,618.56 40.78,618.56 C34.9,618.56 32.52,616.39 32.52,611.385 L32.52,600.115 C32.52,598.75 32.485,597.245 31.19,595.075 Z M58.105,601.445 L58.105,603.58 C60.695,602.285 62.62,601.585 63.985,601.585 C66.68,601.585 68.01,603.545 68.01,607.5 L68.01,612.96 C68.01,614.29 68.01,615.83 69.305,618 L63.18,618 C64.37,615.935 64.44,614.5 64.44,613.31 L64.44,608.76 C64.44,605.225 63.6,603.825 60.065,603.825 C59.4,603.825 58.77,603.86 58.105,603.965 L58.105,612.96 C58.105,614.255 58.105,615.76 59.4,618 L53.275,618 C54.5,615.9 54.535,614.36 54.535,612.96 L54.535,606.94 C54.535,605.4 54.115,604.07 53.205,602.6 L58.105,601.445 Z M76.725,597.14 L76.725,601.795 L82.045,601.795 L82.045,603.405 L76.725,603.405 L76.725,612.715 C76.725,615.305 77.25,616.18 80.365,616.18 C81.135,616.18 81.94,616.11 82.78,616.005 C81.135,617.51 79.07,618.35 77.145,618.35 C73.96,618.35 73.19,616.775 73.19,613.45 L73.19,603.405 L70.425,603.405 C72.49,601.865 74.625,599.8 76.725,597.14 Z M96.465,612.61 C96.465,614.22 96.535,615.655 97.83,617.37 L93.805,618.315 C93.42,617.72 93.175,617.055 93.035,616.285 C90.935,617.615 89.395,618.35 88.24,618.35 C85.895,618.35 83.9,616.32 83.9,613.73 C83.9,610.405 86.245,609.04 91.18,609.04 C91.775,609.04 92.37,609.075 93.035,609.11 L93.035,606.205 C93.035,604.105 92.195,603.055 90.48,603.055 C89.325,603.055 87.82,604.35 85.37,606.59 L85.37,602.565 C87.715,601.9 89.78,601.585 91.6,601.585 C93.595,601.585 94.96,602.005 95.8,603.02 C96.43,603.825 96.465,604.77 96.465,606.1 L96.465,612.61 Z M93.035,610.055 C89.255,610.335 87.505,611.14 87.505,613.205 C87.505,615.095 88.765,616.11 91.18,616.11 C91.635,616.11 92.265,616.075 93.035,615.97 L93.035,610.055 Z M105.11,601.445 L105.11,603.58 C107.7,602.285 109.625,601.585 110.99,601.585 C113.685,601.585 115.015,603.545 115.015,607.5 L115.015,612.96 C115.015,614.29 115.015,615.83 116.31,618 L110.185,618 C111.375,615.935 111.445,614.5 111.445,613.31 L111.445,608.76 C111.445,605.225 110.605,603.825 107.07,603.825 C106.405,603.825 105.775,603.86 105.11,603.965 L105.11,612.96 C105.11,614.255 105.11,615.76 106.405,618 L100.28,618 C101.505,615.9 101.54,614.36 101.54,612.96 L101.54,606.94 C101.54,605.4 101.12,604.07 100.21,602.6 L105.11,601.445 Z M134.685,601.585 L134.685,604.42 L129.995,603.09 C131.22,604.14 131.815,605.47 131.815,607.08 C131.815,609.845 129.365,612.05 125.445,612.05 C124.99,612.05 124.535,611.98 124.01,611.91 C123.8,612.4 123.66,612.855 123.66,613.31 C123.66,614.465 124.43,614.885 126.11,614.885 L129.47,614.885 C132.41,614.885 133.88,615.795 133.88,618.42 C133.88,620.1 133.04,621.85 131.5,623.075 C129.82,624.44 127.615,625.175 125.27,625.175 C120.79,625.175 118.095,623.355 118.095,621.43 C118.095,620.135 119.32,619.12 121.735,617.755 C120.825,617.265 120.335,616.565 120.335,615.69 C120.335,614.43 121.49,613.38 123.73,611.875 C120.79,611.28 119.18,609.53 119.18,607.045 C119.18,603.86 121.77,601.585 125.585,601.585 C127.02,601.585 128.315,601.97 129.575,602.775 L134.685,601.585 Z M125.445,602.775 C123.8,602.775 122.75,604.07 122.75,606.31 C122.75,609.075 123.975,610.825 125.725,610.825 C127.335,610.825 128.42,609.565 128.42,607.43 C128.42,604.56 127.195,602.775 125.445,602.775 Z M122.05,617.965 C121.35,618.91 121,619.82 121,620.625 C121,622.27 122.785,623.53 125.445,623.53 C128.875,623.53 131.08,621.885 131.08,620.03 C131.08,618.735 130.205,618.245 128.42,618.245 L124.36,618.245 C123.52,618.245 122.75,618.21 122.05,617.965 Z M141.545,593.22 L141.545,612.96 C141.545,614.29 141.545,615.83 142.84,618 L136.715,618 C137.975,615.83 138.01,614.325 138.01,612.96 L138.01,598.715 C138.01,597.14 137.52,595.845 136.505,594.375 L141.545,593.22 Z M149.035,593.955 C150.435,593.955 151.24,594.725 151.24,595.915 C151.24,597.21 150.47,597.84 149,597.84 C147.6,597.84 146.865,597.14 146.865,595.88 C146.865,594.69 147.635,593.955 149.035,593.955 Z M150.89,601.445 L150.89,612.96 C150.89,614.255 150.89,615.76 152.185,618 L146.06,618 C147.285,615.9 147.32,614.36 147.32,612.96 L147.32,606.94 C147.32,605.435 146.9,604.035 145.99,602.6 L150.89,601.445 Z M159.92,601.445 L159.92,603.58 C162.51,602.285 164.435,601.585 165.8,601.585 C168.495,601.585 169.825,603.545 169.825,607.5 L169.825,612.96 C169.825,614.29 169.825,615.83 171.12,618 L164.995,618 C166.185,615.935 166.255,614.5 166.255,613.31 L166.255,608.76 C166.255,605.225 165.415,603.825 161.88,603.825 C161.215,603.825 160.585,603.86 159.92,603.965 L159.92,612.96 C159.92,614.255 159.92,615.76 161.215,618 L155.09,618 C156.315,615.9 156.35,614.36 156.35,612.96 L156.35,606.94 C156.35,605.4 155.93,604.07 155.02,602.6 L159.92,601.445 Z M189.495,601.585 L189.495,604.42 L184.805,603.09 C186.03,604.14 186.625,605.47 186.625,607.08 C186.625,609.845 184.175,612.05 180.255,612.05 C179.8,612.05 179.345,611.98 178.82,611.91 C178.61,612.4 178.47,612.855 178.47,613.31 C178.47,614.465 179.24,614.885 180.92,614.885 L184.28,614.885 C187.22,614.885 188.69,615.795 188.69,618.42 C188.69,620.1 187.85,621.85 186.31,623.075 C184.63,624.44 182.425,625.175 180.08,625.175 C175.6,625.175 172.905,623.355 172.905,621.43 C172.905,620.135 174.13,619.12 176.545,617.755 C175.635,617.265 175.145,616.565 175.145,615.69 C175.145,614.43 176.3,613.38 178.54,611.875 C175.6,611.28 173.99,609.53 173.99,607.045 C173.99,603.86 176.58,601.585 180.395,601.585 C181.83,601.585 183.125,601.97 184.385,602.775 L189.495,601.585 Z M180.255,602.775 C178.61,602.775 177.56,604.07 177.56,606.31 C177.56,609.075 178.785,610.825 180.535,610.825 C182.145,610.825 183.23,609.565 183.23,607.43 C183.23,604.56 182.005,602.775 180.255,602.775 Z M176.86,617.965 C176.16,618.91 175.81,619.82 175.81,620.625 C175.81,622.27 177.595,623.53 180.255,623.53 C183.685,623.53 185.89,621.885 185.89,620.03 C185.89,618.735 185.015,618.245 183.23,618.245 L179.17,618.245 C178.33,618.245 177.56,618.21 176.86,617.965 Z M213.19,602.18 L213.19,606.345 L209.62,603.685 C209.06,603.265 208.57,603.055 208.045,603.055 C206.015,603.055 204.16,605.645 204.16,609.635 C204.16,613.94 206.365,616.215 210.53,616.215 C212.105,616.215 213.295,616.11 214.135,615.9 C212.245,617.615 210.215,618.42 207.8,618.42 C203.495,618.42 200.415,615.27 200.415,610.51 C200.415,605.155 203.915,601.55 209.025,601.55 C210.425,601.55 211.79,601.76 213.19,602.18 Z M215.5,610.09 C215.5,605.05 218.79,601.585 223.69,601.585 C228.38,601.585 231.6,604.98 231.6,609.985 C231.6,615.025 228.275,618.56 223.48,618.56 C218.685,618.56 215.5,615.165 215.5,610.09 Z M223.375,602.88 C221.1,602.88 219.49,605.295 219.49,609.705 C219.49,614.535 221.205,617.23 223.55,617.23 C226.105,617.23 227.61,614.85 227.61,610.405 C227.61,605.54 226,602.88 223.375,602.88 Z M239.44,601.445 L239.44,603.58 C241.855,602.32 243.64,601.585 245.005,601.585 C246.51,601.585 247.7,602.285 248.47,603.65 C250.85,602.425 252.705,601.585 254.63,601.585 C257.36,601.585 258.62,603.545 258.62,607.5 L258.62,613.17 C258.62,614.395 258.655,615.865 259.88,618 L253.755,618 C255.015,615.83 255.05,614.325 255.05,613.135 L255.05,608.76 C255.05,605.26 254.21,603.86 250.85,603.86 C250.15,603.86 249.415,603.895 248.61,604 C248.925,604.63 249.03,605.785 249.03,607.5 L249.03,612.96 C249.03,614.29 249.03,615.83 250.325,618 L244.2,618 C245.425,615.865 245.46,614.36 245.46,612.96 L245.46,608.76 C245.46,605.225 244.62,603.825 241.26,603.825 C240.77,603.825 240.175,603.86 239.44,603.965 L239.44,612.96 C239.44,614.255 239.44,615.76 240.735,618 L234.61,618 C235.835,615.9 235.905,614.36 235.905,612.96 L235.905,606.94 C235.905,605.435 235.45,604.035 234.54,602.6 L239.44,601.445 Z M267.23,601.445 L267.23,603.615 C269.33,602.145 271.08,601.48 272.27,601.48 C275.735,601.48 278.465,604.63 278.465,609.25 C278.465,614.43 274.965,618.28 271.01,618.28 C269.61,618.28 268.35,617.895 267.195,617.16 L267.195,620.17 C267.195,621.71 267.335,623.215 268.49,625.21 L262.4,625.21 C263.485,623.355 263.695,621.85 263.695,620.17 L263.695,607.045 C263.695,605.435 263.345,604.175 262.33,602.53 L267.23,601.445 Z M267.195,616.04 C267.93,616.355 268.665,616.53 269.435,616.53 C272.655,616.53 274.72,614.045 274.72,609.985 C274.72,605.925 272.655,603.72 268.91,603.72 C268.385,603.72 267.825,603.825 267.195,603.965 L267.195,616.04 Z M286.095,593.22 L286.095,612.96 C286.095,614.29 286.095,615.83 287.39,618 L281.265,618 C282.525,615.83 282.56,614.325 282.56,612.96 L282.56,598.715 C282.56,597.14 282.07,595.845 281.055,594.375 L286.095,593.22 Z M300.515,607.535 C300.515,604.49 299.465,602.915 297.54,602.915 C295.475,602.915 294.145,604.805 294.04,608.375 L300.515,607.535 Z M304.54,609.18 L294.005,609.18 L294.005,609.39 C294.005,613.975 296.28,616.18 301.04,616.18 C302.02,616.18 303.245,616.075 304.645,615.795 C302.72,617.58 300.48,618.42 297.82,618.42 C293.445,618.42 290.295,615.235 290.295,610.23 C290.295,607.815 291.065,605.715 292.5,604.105 C293.935,602.495 295.965,601.585 298.065,601.585 C302.09,601.585 304.435,604.245 304.54,609.18 Z M305.835,601.795 L312.345,601.795 C311.96,602.285 311.785,602.705 311.785,603.09 C311.785,603.37 311.925,603.72 312.205,604.14 L314.27,607.43 L316.37,604.105 C316.58,603.755 316.79,603.475 316.79,603.125 C316.79,602.81 316.51,602.425 316.09,601.795 L321.025,601.795 C319.94,602.6 318.925,603.72 317.875,605.12 L315.145,608.795 L318.54,614.08 C319.38,615.41 320.36,616.74 321.76,618 L315.11,618 C315.53,617.475 315.775,617.02 315.775,616.67 C315.775,616.355 315.53,616.005 315.25,615.55 L312.87,611.77 L310.35,615.76 C310.14,616.075 310.035,616.355 310.035,616.67 C310.035,617.055 310.28,617.475 310.735,618 L305.8,618 C306.64,617.3 307.515,616.355 308.46,615.095 L311.995,610.405 L308.6,605.05 C307.795,603.755 306.885,602.67 305.835,601.795 Z M36.23,646.445 L36.23,648.615 C38.33,647.145 40.08,646.48 41.27,646.48 C44.735,646.48 47.465,649.63 47.465,654.25 C47.465,659.43 43.965,663.28 40.01,663.28 C38.61,663.28 37.35,662.895 36.195,662.16 L36.195,665.17 C36.195,666.71 36.335,668.215 37.49,670.21 L31.4,670.21 C32.485,668.355 32.695,666.85 32.695,665.17 L32.695,652.045 C32.695,650.435 32.345,649.175 31.33,647.53 L36.23,646.445 Z M36.195,661.04 C36.93,661.355 37.665,661.53 38.435,661.53 C41.655,661.53 43.72,659.045 43.72,654.985 C43.72,650.925 41.655,648.72 37.91,648.72 C37.385,648.72 36.825,648.825 36.195,648.965 L36.195,661.04 Z M55.235,646.445 L55.235,649.07 C57.055,647.46 58.42,646.585 59.575,646.585 C60.1,646.585 60.66,646.69 61.185,646.9 L61.185,650.89 C59.855,649.805 58.595,649.315 57.125,649.315 C56.495,649.315 55.865,649.35 55.235,649.42 L55.235,658.17 C55.235,659.395 55.27,660.865 56.495,663 L50.405,663 C51.63,660.9 51.665,659.36 51.665,657.96 L51.665,651.94 C51.665,650.435 51.245,649.035 50.335,647.6 L55.235,646.445 Z M62.76,655.09 C62.76,650.05 66.05,646.585 70.95,646.585 C75.64,646.585 78.86,649.98 78.86,654.985 C78.86,660.025 75.535,663.56 70.74,663.56 C65.945,663.56 62.76,660.165 62.76,655.09 Z M70.635,647.88 C68.36,647.88 66.75,650.295 66.75,654.705 C66.75,659.535 68.465,662.23 70.81,662.23 C73.365,662.23 74.87,659.85 74.87,655.405 C74.87,650.54 73.26,647.88 70.635,647.88 Z M86.315,638.22 L86.315,648.685 C88.31,647.32 89.885,646.655 91.075,646.655 C94.68,646.655 97.48,649.63 97.48,654.46 C97.48,659.535 94.12,663.21 89.85,663.21 C88.45,663.21 87.295,662.86 86.28,662.09 L82.745,663.42 L82.745,644.24 C82.745,642.455 82.255,641.02 81.17,639.375 L86.315,638.22 Z M86.315,661.04 C87.225,661.355 87.995,661.53 88.73,661.53 C91.775,661.53 93.84,659.08 93.84,655.09 C93.84,651.17 91.67,648.825 88.345,648.825 C87.75,648.825 87.085,648.895 86.315,649 L86.315,661.04 Z M105.04,638.22 L105.04,657.96 C105.04,659.29 105.04,660.83 106.335,663 L100.21,663 C101.47,660.83 101.505,659.325 101.505,657.96 L101.505,643.715 C101.505,642.14 101.015,640.845 100,639.375 L105.04,638.22 Z M119.46,652.535 C119.46,649.49 118.41,647.915 116.485,647.915 C114.42,647.915 113.09,649.805 112.985,653.375 L119.46,652.535 Z M123.485,654.18 L112.95,654.18 L112.95,654.39 C112.95,658.975 115.225,661.18 119.985,661.18 C120.965,661.18 122.19,661.075 123.59,660.795 C121.665,662.58 119.425,663.42 116.765,663.42 C112.39,663.42 109.24,660.235 109.24,655.23 C109.24,652.815 110.01,650.715 111.445,649.105 C112.88,647.495 114.91,646.585 117.01,646.585 C121.035,646.585 123.38,649.245 123.485,654.18 Z M131.08,646.445 L131.08,648.58 C133.495,647.32 135.28,646.585 136.645,646.585 C138.15,646.585 139.34,647.285 140.11,648.65 C142.49,647.425 144.345,646.585 146.27,646.585 C149,646.585 150.26,648.545 150.26,652.5 L150.26,658.17 C150.26,659.395 150.295,660.865 151.52,663 L145.395,663 C146.655,660.83 146.69,659.325 146.69,658.135 L146.69,653.76 C146.69,650.26 145.85,648.86 142.49,648.86 C141.79,648.86 141.055,648.895 140.25,649 C140.565,649.63 140.67,650.785 140.67,652.5 L140.67,657.96 C140.67,659.29 140.67,660.83 141.965,663 L135.84,663 C137.065,660.865 137.1,659.36 137.1,657.96 L137.1,653.76 C137.1,650.225 136.26,648.825 132.9,648.825 C132.41,648.825 131.815,648.86 131.08,648.965 L131.08,657.96 C131.08,659.255 131.08,660.76 132.375,663 L126.25,663 C127.475,660.9 127.545,659.36 127.545,657.96 L127.545,651.94 C127.545,650.435 127.09,649.035 126.18,647.6 L131.08,646.445 Z M164.645,647.215 L164.645,651.065 C162.195,649.245 160.76,648.055 159.71,648.055 C158.52,648.055 157.575,648.965 157.575,650.05 C157.575,651.205 158.31,651.905 159.71,652.675 L162.09,653.935 C164.26,655.125 165.31,656.35 165.31,658.275 C165.31,661.355 162.965,663.49 159.185,663.49 C157.785,663.49 156.07,663.21 154.18,662.615 L154.18,658.625 C156.77,660.69 158.31,662.02 159.535,662.02 C160.865,662.02 161.88,660.97 161.88,659.675 C161.88,658.38 161.11,657.82 159.71,657.015 L157.61,655.825 C155.44,654.6 154.355,653.13 154.355,651.45 C154.355,648.545 156.63,646.585 160.27,646.585 C161.53,646.585 163.035,646.795 164.645,647.215 Z M174.83,646.795 L181.62,646.795 C180.955,647.74 180.64,648.405 180.64,648.755 C180.64,649.035 180.71,649.42 180.85,649.84 L183.65,659.045 L187.745,646.795 L189.495,646.795 L193.66,659.115 L196.355,649.665 C196.53,649.105 196.565,648.72 196.565,648.51 C196.565,648.09 196.285,647.53 195.725,646.795 L200.625,646.795 C199.05,648.44 198.525,650.015 198.035,651.31 L193.625,663.245 L191.42,663.245 L187.675,652.15 L183.93,663.245 L181.655,663.245 L177.14,650.33 C176.79,649.315 176.37,648.23 174.83,646.795 Z M204.79,638.955 C206.19,638.955 206.995,639.725 206.995,640.915 C206.995,642.21 206.225,642.84 204.755,642.84 C203.355,642.84 202.62,642.14 202.62,640.88 C202.62,639.69 203.39,638.955 204.79,638.955 Z M206.645,646.445 L206.645,657.96 C206.645,659.255 206.645,660.76 207.94,663 L201.815,663 C203.04,660.9 203.075,659.36 203.075,657.96 L203.075,651.94 C203.075,650.435 202.655,649.035 201.745,647.6 L206.645,646.445 Z M215.675,642.14 L215.675,646.795 L220.995,646.795 L220.995,648.405 L215.675,648.405 L215.675,657.715 C215.675,660.305 216.2,661.18 219.315,661.18 C220.085,661.18 220.89,661.11 221.73,661.005 C220.085,662.51 218.02,663.35 216.095,663.35 C212.91,663.35 212.14,661.775 212.14,658.45 L212.14,648.405 L209.375,648.405 C211.44,646.865 213.575,644.8 215.675,642.14 Z M227.715,638.22 L227.715,648.58 C230.305,647.285 232.23,646.585 233.595,646.585 C236.29,646.585 237.62,648.545 237.62,652.5 L237.62,658.17 C237.62,659.465 237.655,660.935 238.88,663 L232.755,663 C234.015,660.83 234.05,659.325 234.05,658.135 L234.05,653.76 C234.05,650.225 233.21,648.825 229.675,648.825 C229.01,648.825 228.38,648.86 227.715,648.965 L227.715,658.17 C227.715,659.395 227.75,660.865 228.975,663 L222.885,663 C224.11,660.9 224.145,659.36 224.145,657.96 L224.145,644.24 C224.145,642.455 223.69,641.09 222.57,639.375 L227.715,638.22 Z M255.225,638.22 L255.225,648.58 C257.815,647.285 259.74,646.585 261.105,646.585 C263.8,646.585 265.13,648.545 265.13,652.5 L265.13,658.17 C265.13,659.465 265.165,660.935 266.39,663 L260.265,663 C261.525,660.83 261.56,659.325 261.56,658.135 L261.56,653.76 C261.56,650.225 260.72,648.825 257.185,648.825 C256.52,648.825 255.89,648.86 255.225,648.965 L255.225,658.17 C255.225,659.395 255.26,660.865 256.485,663 L250.395,663 C251.62,660.9 251.655,659.36 251.655,657.96 L251.655,644.24 C251.655,642.455 251.2,641.09 250.08,639.375 L255.225,638.22 Z M273.6,646.445 L273.6,656.56 C273.6,659.885 274.405,661.005 277.73,661.005 C278.43,661.005 279.165,660.935 279.9,660.83 L279.9,651.94 C279.9,650.4 279.48,649.07 278.57,647.6 L283.47,646.445 L283.47,657.715 C283.47,659.325 283.82,660.62 284.8,662.16 L279.9,663.315 L279.9,661.145 C277.485,662.545 275.595,663.245 274.16,663.245 C271.185,663.245 270.03,661.53 270.03,657.855 L270.03,651.94 C270.03,650.4 269.575,649.07 268.665,647.6 L273.6,646.445 Z M292.5,646.445 L292.5,648.58 C294.915,647.32 296.7,646.585 298.065,646.585 C299.57,646.585 300.76,647.285 301.53,648.65 C303.91,647.425 305.765,646.585 307.69,646.585 C310.42,646.585 311.68,648.545 311.68,652.5 L311.68,658.17 C311.68,659.395 311.715,660.865 312.94,663 L306.815,663 C308.075,660.83 308.11,659.325 308.11,658.135 L308.11,653.76 C308.11,650.26 307.27,648.86 303.91,648.86 C303.21,648.86 302.475,648.895 301.67,649 C301.985,649.63 302.09,650.785 302.09,652.5 L302.09,657.96 C302.09,659.29 302.09,660.83 303.385,663 L297.26,663 C298.485,660.865 298.52,659.36 298.52,657.96 L298.52,653.76 C298.52,650.225 297.68,648.825 294.32,648.825 C293.83,648.825 293.235,648.86 292.5,648.965 L292.5,657.96 C292.5,659.255 292.5,660.76 293.795,663 L287.67,663 C288.895,660.9 288.965,659.36 288.965,657.96 L288.965,651.94 C288.965,650.435 288.51,649.035 287.6,647.6 L292.5,646.445 Z M327.99,657.61 C327.99,659.22 328.06,660.655 329.355,662.37 L325.33,663.315 C324.945,662.72 324.7,662.055 324.56,661.285 C322.46,662.615 320.92,663.35 319.765,663.35 C317.42,663.35 315.425,661.32 315.425,658.73 C315.425,655.405 317.77,654.04 322.705,654.04 C323.3,654.04 323.895,654.075 324.56,654.11 L324.56,651.205 C324.56,649.105 323.72,648.055 322.005,648.055 C320.85,648.055 319.345,649.35 316.895,651.59 L316.895,647.565 C319.24,646.9 321.305,646.585 323.125,646.585 C325.12,646.585 326.485,647.005 327.325,648.02 C327.955,648.825 327.99,649.77 327.99,651.1 L327.99,657.61 Z M324.56,655.055 C320.78,655.335 319.03,656.14 319.03,658.205 C319.03,660.095 320.29,661.11 322.705,661.11 C323.16,661.11 323.79,661.075 324.56,660.97 L324.56,655.055 Z M336.635,646.445 L336.635,648.58 C339.225,647.285 341.15,646.585 342.515,646.585 C345.21,646.585 346.54,648.545 346.54,652.5 L346.54,657.96 C346.54,659.29 346.54,660.83 347.835,663 L341.71,663 C342.9,660.935 342.97,659.5 342.97,658.31 L342.97,653.76 C342.97,650.225 342.13,648.825 338.595,648.825 C337.93,648.825 337.3,648.86 336.635,648.965 L336.635,657.96 C336.635,659.255 336.635,660.76 337.93,663 L331.805,663 C333.03,660.9 333.065,659.36 333.065,657.96 L333.065,651.94 C333.065,650.4 332.645,649.07 331.735,647.6 L336.635,646.445 Z M349.725,652.885 L357.145,652.885 L357.145,655.65 L349.725,655.65 L349.725,652.885 Z M46.17,683.22 L46.17,702.645 C46.17,704.01 46.24,705.48 47.465,707.37 L42.635,708.42 L42.635,706.25 C40.5,707.72 38.75,708.385 37.56,708.385 C34.095,708.385 31.365,705.2 31.365,700.58 C31.365,695.4 34.865,691.585 38.82,691.585 C40.185,691.585 41.445,691.97 42.635,692.705 L42.635,689.065 C42.635,687.28 42.04,685.985 41.06,684.375 L46.17,683.22 Z M42.635,693.825 C41.865,693.475 41.13,693.3 40.395,693.3 C37.175,693.3 35.11,695.785 35.11,699.88 C35.11,703.87 37.175,706.11 40.745,706.11 C41.41,706.11 42.04,706.04 42.635,705.9 L42.635,693.825 Z M60.415,697.535 C60.415,694.49 59.365,692.915 57.44,692.915 C55.375,692.915 54.045,694.805 53.94,698.375 L60.415,697.535 Z M64.44,699.18 L53.905,699.18 L53.905,699.39 C53.905,703.975 56.18,706.18 60.94,706.18 C61.92,706.18 63.145,706.075 64.545,705.795 C62.62,707.58 60.38,708.42 57.72,708.42 C53.345,708.42 50.195,705.235 50.195,700.23 C50.195,697.815 50.965,695.715 52.4,694.105 C53.835,692.495 55.865,691.585 57.965,691.585 C61.99,691.585 64.335,694.245 64.44,699.18 Z M77.565,692.215 L77.565,696.065 C75.115,694.245 73.68,693.055 72.63,693.055 C71.44,693.055 70.495,693.965 70.495,695.05 C70.495,696.205 71.23,696.905 72.63,697.675 L75.01,698.935 C77.18,700.125 78.23,701.35 78.23,703.275 C78.23,706.355 75.885,708.49 72.105,708.49 C70.705,708.49 68.99,708.21 67.1,707.615 L67.1,703.625 C69.69,705.69 71.23,707.02 72.455,707.02 C73.785,707.02 74.8,705.97 74.8,704.675 C74.8,703.38 74.03,702.82 72.63,702.015 L70.53,700.825 C68.36,699.6 67.275,698.13 67.275,696.45 C67.275,693.545 69.55,691.585 73.19,691.585 C74.45,691.585 75.955,691.795 77.565,692.215 Z M84.11,683.955 C85.51,683.955 86.315,684.725 86.315,685.915 C86.315,687.21 85.545,687.84 84.075,687.84 C82.675,687.84 81.94,687.14 81.94,685.88 C81.94,684.69 82.71,683.955 84.11,683.955 Z M85.965,691.445 L85.965,702.96 C85.965,704.255 85.965,705.76 87.26,708 L81.135,708 C82.36,705.9 82.395,704.36 82.395,702.96 L82.395,696.94 C82.395,695.435 81.975,694.035 81.065,692.6 L85.965,691.445 Z M105.95,691.585 L105.95,694.42 L101.26,693.09 C102.485,694.14 103.08,695.47 103.08,697.08 C103.08,699.845 100.63,702.05 96.71,702.05 C96.255,702.05 95.8,701.98 95.275,701.91 C95.065,702.4 94.925,702.855 94.925,703.31 C94.925,704.465 95.695,704.885 97.375,704.885 L100.735,704.885 C103.675,704.885 105.145,705.795 105.145,708.42 C105.145,710.1 104.305,711.85 102.765,713.075 C101.085,714.44 98.88,715.175 96.535,715.175 C92.055,715.175 89.36,713.355 89.36,711.43 C89.36,710.135 90.585,709.12 93,707.755 C92.09,707.265 91.6,706.565 91.6,705.69 C91.6,704.43 92.755,703.38 94.995,701.875 C92.055,701.28 90.445,699.53 90.445,697.045 C90.445,693.86 93.035,691.585 96.85,691.585 C98.285,691.585 99.58,691.97 100.84,692.775 L105.95,691.585 Z M96.71,692.775 C95.065,692.775 94.015,694.07 94.015,696.31 C94.015,699.075 95.24,700.825 96.99,700.825 C98.6,700.825 99.685,699.565 99.685,697.43 C99.685,694.56 98.46,692.775 96.71,692.775 Z M93.315,707.965 C92.615,708.91 92.265,709.82 92.265,710.625 C92.265,712.27 94.05,713.53 96.71,713.53 C100.14,713.53 102.345,711.885 102.345,710.03 C102.345,708.735 101.47,708.245 99.685,708.245 L95.625,708.245 C94.785,708.245 94.015,708.21 93.315,707.965 Z M112.81,691.445 L112.81,693.58 C115.4,692.285 117.325,691.585 118.69,691.585 C121.385,691.585 122.715,693.545 122.715,697.5 L122.715,702.96 C122.715,704.29 122.715,705.83 124.01,708 L117.885,708 C119.075,705.935 119.145,704.5 119.145,703.31 L119.145,698.76 C119.145,695.225 118.305,693.825 114.77,693.825 C114.105,693.825 113.475,693.86 112.81,693.965 L112.81,702.96 C112.81,704.255 112.81,705.76 114.105,708 L107.98,708 C109.205,705.9 109.24,704.36 109.24,702.96 L109.24,696.94 C109.24,695.4 108.82,694.07 107.91,692.6 L112.81,691.445 Z M136.75,697.535 C136.75,694.49 135.7,692.915 133.775,692.915 C131.71,692.915 130.38,694.805 130.275,698.375 L136.75,697.535 Z M140.775,699.18 L130.24,699.18 L130.24,699.39 C130.24,703.975 132.515,706.18 137.275,706.18 C138.255,706.18 139.48,706.075 140.88,705.795 C138.955,707.58 136.715,708.42 134.055,708.42 C129.68,708.42 126.53,705.235 126.53,700.23 C126.53,697.815 127.3,695.715 128.735,694.105 C130.17,692.495 132.2,691.585 134.3,691.585 C138.325,691.585 140.67,694.245 140.775,699.18 Z M158.065,683.22 L158.065,702.645 C158.065,704.01 158.135,705.48 159.36,707.37 L154.53,708.42 L154.53,706.25 C152.395,707.72 150.645,708.385 149.455,708.385 C145.99,708.385 143.26,705.2 143.26,700.58 C143.26,695.4 146.76,691.585 150.715,691.585 C152.08,691.585 153.34,691.97 154.53,692.705 L154.53,689.065 C154.53,687.28 153.935,685.985 152.955,684.375 L158.065,683.22 Z M154.53,693.825 C153.76,693.475 153.025,693.3 152.29,693.3 C149.07,693.3 147.005,695.785 147.005,699.88 C147.005,703.87 149.07,706.11 152.64,706.11 C153.305,706.11 153.935,706.04 154.53,705.9 L154.53,693.825 Z M175.95,687.14 L175.95,691.795 L181.27,691.795 L181.27,693.405 L175.95,693.405 L175.95,702.715 C175.95,705.305 176.475,706.18 179.59,706.18 C180.36,706.18 181.165,706.11 182.005,706.005 C180.36,707.51 178.295,708.35 176.37,708.35 C173.185,708.35 172.415,706.775 172.415,703.45 L172.415,693.405 L169.65,693.405 C171.715,691.865 173.85,689.8 175.95,687.14 Z M193.345,697.535 C193.345,694.49 192.295,692.915 190.37,692.915 C188.305,692.915 186.975,694.805 186.87,698.375 L193.345,697.535 Z M197.37,699.18 L186.835,699.18 L186.835,699.39 C186.835,703.975 189.11,706.18 193.87,706.18 C194.85,706.18 196.075,706.075 197.475,705.795 C195.55,707.58 193.31,708.42 190.65,708.42 C186.275,708.42 183.125,705.235 183.125,700.23 C183.125,697.815 183.895,695.715 185.33,694.105 C186.765,692.495 188.795,691.585 190.895,691.585 C194.92,691.585 197.265,694.245 197.37,699.18 Z M212.63,692.18 L212.63,696.345 L209.06,693.685 C208.5,693.265 208.01,693.055 207.485,693.055 C205.455,693.055 203.6,695.645 203.6,699.635 C203.6,703.94 205.805,706.215 209.97,706.215 C211.545,706.215 212.735,706.11 213.575,705.9 C211.685,707.615 209.655,708.42 207.24,708.42 C202.935,708.42 199.855,705.27 199.855,700.51 C199.855,695.155 203.355,691.55 208.465,691.55 C209.865,691.55 211.23,691.76 212.63,692.18 Z M219.805,683.22 L219.805,693.58 C222.395,692.285 224.32,691.585 225.685,691.585 C228.38,691.585 229.71,693.545 229.71,697.5 L229.71,703.17 C229.71,704.465 229.745,705.935 230.97,708 L224.845,708 C226.105,705.83 226.14,704.325 226.14,703.135 L226.14,698.76 C226.14,695.225 225.3,693.825 221.765,693.825 C221.1,693.825 220.47,693.86 219.805,693.965 L219.805,703.17 C219.805,704.395 219.84,705.865 221.065,708 L214.975,708 C216.2,705.9 216.235,704.36 216.235,702.96 L216.235,689.24 C216.235,687.455 215.78,686.09 214.66,684.375 L219.805,683.22 Z M238.39,691.445 L238.39,693.58 C240.98,692.285 242.905,691.585 244.27,691.585 C246.965,691.585 248.295,693.545 248.295,697.5 L248.295,702.96 C248.295,704.29 248.295,705.83 249.59,708 L243.465,708 C244.655,705.935 244.725,704.5 244.725,703.31 L244.725,698.76 C244.725,695.225 243.885,693.825 240.35,693.825 C239.685,693.825 239.055,693.86 238.39,693.965 L238.39,702.96 C238.39,704.255 238.39,705.76 239.685,708 L233.56,708 C234.785,705.9 234.82,704.36 234.82,702.96 L234.82,696.94 C234.82,695.4 234.4,694.07 233.49,692.6 L238.39,691.445 Z M252.11,700.09 C252.11,695.05 255.4,691.585 260.3,691.585 C264.99,691.585 268.21,694.98 268.21,699.985 C268.21,705.025 264.885,708.56 260.09,708.56 C255.295,708.56 252.11,705.165 252.11,700.09 Z M259.985,692.88 C257.71,692.88 256.1,695.295 256.1,699.705 C256.1,704.535 257.815,707.23 260.16,707.23 C262.715,707.23 264.22,704.85 264.22,700.405 C264.22,695.54 262.61,692.88 259.985,692.88 Z M275.84,683.22 L275.84,702.96 C275.84,704.29 275.84,705.83 277.135,708 L271.01,708 C272.27,705.83 272.305,704.325 272.305,702.96 L272.305,688.715 C272.305,687.14 271.815,685.845 270.8,684.375 L275.84,683.22 Z M280.04,700.09 C280.04,695.05 283.33,691.585 288.23,691.585 C292.92,691.585 296.14,694.98 296.14,699.985 C296.14,705.025 292.815,708.56 288.02,708.56 C283.225,708.56 280.04,705.165 280.04,700.09 Z M287.915,692.88 C285.64,692.88 284.03,695.295 284.03,699.705 C284.03,704.535 285.745,707.23 288.09,707.23 C290.645,707.23 292.15,704.85 292.15,700.405 C292.15,695.54 290.54,692.88 287.915,692.88 Z M314.725,691.585 L314.725,694.42 L310.035,693.09 C311.26,694.14 311.855,695.47 311.855,697.08 C311.855,699.845 309.405,702.05 305.485,702.05 C305.03,702.05 304.575,701.98 304.05,701.91 C303.84,702.4 303.7,702.855 303.7,703.31 C303.7,704.465 304.47,704.885 306.15,704.885 L309.51,704.885 C312.45,704.885 313.92,705.795 313.92,708.42 C313.92,710.1 313.08,711.85 311.54,713.075 C309.86,714.44 307.655,715.175 305.31,715.175 C300.83,715.175 298.135,713.355 298.135,711.43 C298.135,710.135 299.36,709.12 301.775,707.755 C300.865,707.265 300.375,706.565 300.375,705.69 C300.375,704.43 301.53,703.38 303.77,701.875 C300.83,701.28 299.22,699.53 299.22,697.045 C299.22,693.86 301.81,691.585 305.625,691.585 C307.06,691.585 308.355,691.97 309.615,692.775 L314.725,691.585 Z M305.485,692.775 C303.84,692.775 302.79,694.07 302.79,696.31 C302.79,699.075 304.015,700.825 305.765,700.825 C307.375,700.825 308.46,699.565 308.46,697.43 C308.46,694.56 307.235,692.775 305.485,692.775 Z M302.09,707.965 C301.39,708.91 301.04,709.82 301.04,710.625 C301.04,712.27 302.825,713.53 305.485,713.53 C308.915,713.53 311.12,711.885 311.12,710.03 C311.12,708.735 310.245,708.245 308.46,708.245 L304.4,708.245 C303.56,708.245 302.79,708.21 302.09,707.965 Z M314.83,691.795 L321.725,691.795 C321.06,692.705 320.675,693.335 320.675,693.825 C320.675,694.14 320.78,694.49 320.955,694.945 L324.42,704.395 L327.29,695.085 C327.465,694.525 327.535,694.105 327.535,693.825 C327.535,693.335 327.185,692.67 326.625,691.795 L331.7,691.795 C330.475,693.055 329.74,694.385 329.145,695.925 L324,709.61 C322.495,713.6 321.095,715.21 318.05,715.21 C317.56,715.21 316.825,715.105 315.81,714.93 L315.81,711.045 L317.98,712.795 C318.435,713.18 318.925,713.355 319.24,713.355 C320.36,713.355 321.41,711.745 322.6,708.42 L317.245,695.54 C316.895,694.7 316.475,693.405 314.83,691.795 Z M34.655,728.955 C36.055,728.955 36.86,729.725 36.86,730.915 C36.86,732.21 36.09,732.84 34.62,732.84 C33.22,732.84 32.485,732.14 32.485,730.88 C32.485,729.69 33.255,728.955 34.655,728.955 Z M36.51,736.445 L36.51,747.96 C36.51,749.255 36.51,750.76 37.805,753 L31.68,753 C32.905,750.9 32.94,749.36 32.94,747.96 L32.94,741.94 C32.94,740.435 32.52,739.035 31.61,737.6 L36.51,736.445 Z M51.28,737.215 L51.28,741.065 C48.83,739.245 47.395,738.055 46.345,738.055 C45.155,738.055 44.21,738.965 44.21,740.05 C44.21,741.205 44.945,741.905 46.345,742.675 L48.725,743.935 C50.895,745.125 51.945,746.35 51.945,748.275 C51.945,751.355 49.6,753.49 45.82,753.49 C44.42,753.49 42.705,753.21 40.815,752.615 L40.815,748.625 C43.405,750.69 44.945,752.02 46.17,752.02 C47.5,752.02 48.515,750.97 48.515,749.675 C48.515,748.38 47.745,747.82 46.345,747.015 L44.245,745.825 C42.075,744.6 40.99,743.13 40.99,741.45 C40.99,738.545 43.265,736.585 46.905,736.585 C48.165,736.585 49.67,736.795 51.28,737.215 Z M61.465,736.795 L68.255,736.795 C67.59,737.74 67.275,738.405 67.275,738.755 C67.275,739.035 67.345,739.42 67.485,739.84 L70.285,749.045 L74.38,736.795 L76.13,736.795 L80.295,749.115 L82.99,739.665 C83.165,739.105 83.2,738.72 83.2,738.51 C83.2,738.09 82.92,737.53 82.36,736.795 L87.26,736.795 C85.685,738.44 85.16,740.015 84.67,741.31 L80.26,753.245 L78.055,753.245 L74.31,742.15 L70.565,753.245 L68.29,753.245 L63.775,740.33 C63.425,739.315 63.005,738.23 61.465,736.795 Z M93,728.22 L93,738.58 C95.59,737.285 97.515,736.585 98.88,736.585 C101.575,736.585 102.905,738.545 102.905,742.5 L102.905,748.17 C102.905,749.465 102.94,750.935 104.165,753 L98.04,753 C99.3,750.83 99.335,749.325 99.335,748.135 L99.335,743.76 C99.335,740.225 98.495,738.825 94.96,738.825 C94.295,738.825 93.665,738.86 93,738.965 L93,748.17 C93,749.395 93.035,750.865 94.26,753 L88.17,753 C89.395,750.9 89.43,749.36 89.43,747.96 L89.43,734.24 C89.43,732.455 88.975,731.09 87.855,729.375 L93,728.22 Z M119.25,747.61 C119.25,749.22 119.32,750.655 120.615,752.37 L116.59,753.315 C116.205,752.72 115.96,752.055 115.82,751.285 C113.72,752.615 112.18,753.35 111.025,753.35 C108.68,753.35 106.685,751.32 106.685,748.73 C106.685,745.405 109.03,744.04 113.965,744.04 C114.56,744.04 115.155,744.075 115.82,744.11 L115.82,741.205 C115.82,739.105 114.98,738.055 113.265,738.055 C112.11,738.055 110.605,739.35 108.155,741.59 L108.155,737.565 C110.5,736.9 112.565,736.585 114.385,736.585 C116.38,736.585 117.745,737.005 118.585,738.02 C119.215,738.825 119.25,739.77 119.25,741.1 L119.25,747.61 Z M115.82,745.055 C112.04,745.335 110.29,746.14 110.29,748.205 C110.29,750.095 111.55,751.11 113.965,751.11 C114.42,751.11 115.05,751.075 115.82,750.97 L115.82,745.055 Z M127.895,732.14 L127.895,736.795 L133.215,736.795 L133.215,738.405 L127.895,738.405 L127.895,747.715 C127.895,750.305 128.42,751.18 131.535,751.18 C132.305,751.18 133.11,751.11 133.95,751.005 C132.305,752.51 130.24,753.35 128.315,753.35 C125.13,753.35 124.36,751.775 124.36,748.45 L124.36,738.405 L121.595,738.405 C123.66,736.865 125.795,734.8 127.895,732.14 Z M144.31,730.075 L150.61,730.075 C149.385,732.14 149.35,733.61 149.35,734.905 L149.35,748.17 C149.35,749.465 149.385,750.935 150.61,753 L144.31,753 C145.57,750.83 145.605,749.325 145.605,747.96 L145.605,735.115 C145.605,733.75 145.57,732.245 144.31,730.075 Z M167.48,728.22 L167.48,747.96 C167.48,749.29 167.48,750.83 168.775,753 L162.65,753 C163.91,750.83 163.945,749.325 163.945,747.96 L163.945,733.715 C163.945,732.14 163.455,730.845 162.44,729.375 L167.48,728.22 Z M174.97,728.955 C176.37,728.955 177.175,729.725 177.175,730.915 C177.175,732.21 176.405,732.84 174.935,732.84 C173.535,732.84 172.8,732.14 172.8,730.88 C172.8,729.69 173.57,728.955 174.97,728.955 Z M176.825,736.445 L176.825,747.96 C176.825,749.255 176.825,750.76 178.12,753 L171.995,753 C173.22,750.9 173.255,749.36 173.255,747.96 L173.255,741.94 C173.255,740.435 172.835,739.035 171.925,737.6 L176.825,736.445 Z M185.785,728.22 L185.785,748.17 C185.785,749.43 185.82,750.9 187.045,753 L180.955,753 C182.18,750.865 182.215,749.395 182.215,748.17 L182.215,733.715 C182.215,732.14 181.76,730.81 180.745,729.375 L185.785,728.22 Z M190.825,736.795 L197.265,736.795 C194.71,738.23 193.345,739.42 192.715,739.98 L189.355,742.92 L194.465,750.06 C195.305,751.215 196.18,752.195 197.51,753 L192.05,753 L186.17,744.355 L190.93,739.21 C191.28,738.825 191.455,738.475 191.455,738.195 C191.455,737.845 191.245,737.355 190.825,736.795 Z M208.605,742.535 C208.605,739.49 207.555,737.915 205.63,737.915 C203.565,737.915 202.235,739.805 202.13,743.375 L208.605,742.535 Z M212.63,744.18 L202.095,744.18 L202.095,744.39 C202.095,748.975 204.37,751.18 209.13,751.18 C210.11,751.18 211.335,751.075 212.735,750.795 C210.81,752.58 208.57,753.42 205.91,753.42 C201.535,753.42 198.385,750.235 198.385,745.23 C198.385,742.815 199.155,740.715 200.59,739.105 C202.025,737.495 204.055,736.585 206.155,736.585 C210.18,736.585 212.525,739.245 212.63,744.18 Z M236.64,747.61 C236.64,749.22 236.71,750.655 238.005,752.37 L233.98,753.315 C233.595,752.72 233.35,752.055 233.21,751.285 C231.11,752.615 229.57,753.35 228.415,753.35 C226.07,753.35 224.075,751.32 224.075,748.73 C224.075,745.405 226.42,744.04 231.355,744.04 C231.95,744.04 232.545,744.075 233.21,744.11 L233.21,741.205 C233.21,739.105 232.37,738.055 230.655,738.055 C229.5,738.055 227.995,739.35 225.545,741.59 L225.545,737.565 C227.89,736.9 229.955,736.585 231.775,736.585 C233.77,736.585 235.135,737.005 235.975,738.02 C236.605,738.825 236.64,739.77 236.64,741.1 L236.64,747.61 Z M233.21,745.055 C229.43,745.335 227.68,746.14 227.68,748.205 C227.68,750.095 228.94,751.11 231.355,751.11 C231.81,751.11 232.44,751.075 233.21,750.97 L233.21,745.055 Z M245.285,736.445 L245.285,738.58 C247.875,737.285 249.8,736.585 251.165,736.585 C253.86,736.585 255.19,738.545 255.19,742.5 L255.19,747.96 C255.19,749.29 255.19,750.83 256.485,753 L250.36,753 C251.55,750.935 251.62,749.5 251.62,748.31 L251.62,743.76 C251.62,740.225 250.78,738.825 247.245,738.825 C246.58,738.825 245.95,738.86 245.285,738.965 L245.285,747.96 C245.285,749.255 245.285,750.76 246.58,753 L240.455,753 C241.68,750.9 241.715,749.36 241.715,747.96 L241.715,741.94 C241.715,740.4 241.295,739.07 240.385,737.6 L245.285,736.445 Z M273.81,728.22 L273.81,747.645 C273.81,749.01 273.88,750.48 275.105,752.37 L270.275,753.42 L270.275,751.25 C268.14,752.72 266.39,753.385 265.2,753.385 C261.735,753.385 259.005,750.2 259.005,745.58 C259.005,740.4 262.505,736.585 266.46,736.585 C267.825,736.585 269.085,736.97 270.275,737.705 L270.275,734.065 C270.275,732.28 269.68,730.985 268.7,729.375 L273.81,728.22 Z M270.275,738.825 C269.505,738.475 268.77,738.3 268.035,738.3 C264.815,738.3 262.75,740.785 262.75,744.88 C262.75,748.87 264.815,751.11 268.385,751.11 C269.05,751.11 269.68,751.04 270.275,750.9 L270.275,738.825 Z M301.6,728.22 L301.6,747.645 C301.6,749.01 301.67,750.48 302.895,752.37 L298.065,753.42 L298.065,751.25 C295.93,752.72 294.18,753.385 292.99,753.385 C289.525,753.385 286.795,750.2 286.795,745.58 C286.795,740.4 290.295,736.585 294.25,736.585 C295.615,736.585 296.875,736.97 298.065,737.705 L298.065,734.065 C298.065,732.28 297.47,730.985 296.49,729.375 L301.6,728.22 Z M298.065,738.825 C297.295,738.475 296.56,738.3 295.825,738.3 C292.605,738.3 290.54,740.785 290.54,744.88 C290.54,748.87 292.605,751.11 296.175,751.11 C296.84,751.11 297.47,751.04 298.065,750.9 L298.065,738.825 Z M305.625,745.09 C305.625,740.05 308.915,736.585 313.815,736.585 C318.505,736.585 321.725,739.98 321.725,744.985 C321.725,750.025 318.4,753.56 313.605,753.56 C308.81,753.56 305.625,750.165 305.625,745.09 Z M313.5,737.88 C311.225,737.88 309.615,740.295 309.615,744.705 C309.615,749.535 311.33,752.23 313.675,752.23 C316.23,752.23 317.735,749.85 317.735,745.405 C317.735,740.54 316.125,737.88 313.5,737.88 Z" id="Untanglingcomplexproblemswithhuman-designedtechnologyiswhatIlikeanddo" fill="#FFFFFF" fill-rule="nonzero"></path>
    </g>
</svg>